<svg width="159" height="132" xmlns="http://www.w3.org/2000/svg" preserveAspectRatio="xMidYMid meet">

 <g>
  <title>background</title>
  <rect fill="none" id="canvas_background" height="602" width="802" y="-1" x="-1"/>
 </g>
 <g>
  <title>Layer 1</title>
  <g id="svg_1" fill="#000000" transform="translate(0,132) scale(0.10000000149011612,-0.10000000149011612) ">
   <path fill="#4d8ceb" id="svg_2" d="m590,1239c-96,-44 -189,-86 -207,-95c-17,-8 -100,-46 -184,-84c-208,-96 -199,-88 -199,-160c0,-50 4,-61 22,-74c12,-9 35,-16 50,-16l27,0l3,-379l3,-379l24,-26c20,-22 33,-26 78,-26l53,0l0,299c0,254 2,300 15,305c8,3 247,4 532,3l518,-2l3,-303l2,-302l51,0c67,0 95,27 104,101c3,30 5,201 3,382l-3,327l33,0c48,0 72,29 72,88c0,27 -6,56 -12,65c-7,9 -53,35 -103,57c-487,224 -660,300 -683,300c-15,0 -106,-36 -202,-81zm-82,-371l-3,-53l-120,0l-120,0l-3,39c-6,66 -6,66 128,66l121,0l-3,-52zm412,2l0,-50l-125,0l-125,0l0,50l0,50l125,0l125,0l0,-50zm408,-3l3,-48l-128,3c-126,3 -128,3 -131,27c-2,12 -1,34 2,47c7,25 7,25 129,22l122,-3l3,-48z"/>
   <path fill="#4d8ceb" id="svg_3" d="m517,553c-13,-12 -8,-228 5,-241c16,-16 220,-16 236,0c8,8 12,49 12,119c0,121 -6,132 -67,127c-30,-2 -38,-7 -38,-23c0,-14 -8,-21 -27,-23c-24,-3 -28,0 -28,22c0,24 -3,26 -43,26c-24,0 -47,-3 -50,-7z"/>
   <path fill="#4d8ceb" id="svg_4" d="m827,553c-4,-3 -7,-59 -7,-124c0,-140 -10,-131 145,-127l100,3l0,125l0,125l-47,3c-46,3 -48,2 -48,-22c0,-21 -5,-26 -25,-26c-20,0 -25,5 -25,25c0,23 -4,25 -43,25c-24,0 -47,-3 -50,-7z"/>
   <path fill="#4d8ceb" id="svg_5" d="m367,243c-4,-3 -7,-60 -7,-125l0,-118l125,0l126,0l-3,122l-3,123l-47,3c-46,3 -48,2 -48,-22c0,-21 -5,-26 -25,-26c-20,0 -25,5 -25,25c0,23 -4,25 -43,25c-24,0 -47,-3 -50,-7z"/>
   <path fill="#4d8ceb" id="svg_6" d="m671,236c-8,-9 -11,-51 -9,-122l3,-109l125,0l125,0l0,120l0,120l-47,3c-46,3 -48,2 -48,-22c0,-21 -5,-26 -25,-26c-20,0 -25,5 -25,25c0,23 -4,25 -44,25c-25,0 -48,-6 -55,-14z"/>
   <path fill="#4d8ceb" id="svg_7" d="m975,228c-3,-13 -5,-68 -3,-123l3,-100l125,0l125,0l3,100c4,139 2,145 -52,145c-39,0 -45,-3 -48,-22c-2,-17 -11,-24 -31,-26c-25,-3 -28,0 -25,20c3,21 -1,23 -44,26c-42,3 -48,1 -53,-20z"/>
  </g>
 </g>
</svg>