<svg width="129" height="126" xmlns="http://www.w3.org/2000/svg" preserveAspectRatio="xMidYMid meet">

 <g>
  <title>background</title>
  <rect fill="none" id="canvas_background" height="602" width="802" y="-1" x="-1"/>
 </g>
 <g>
  <title>Layer 1</title>
  <g id="svg_1" fill="#000000" transform="translate(0,126) scale(0.10000000149011612,-0.10000000149011612) ">
   <path fill="#4d8ceb" id="svg_2" d="m134,1250c-54,-21 -72,-105 -34,-153c55,-69 170,-26 170,63c0,71 -70,117 -136,90z"/>
   <path fill="#4d8ceb" id="svg_3" d="m118,1014c-15,-8 -32,-23 -38,-34c-16,-29 -1,-419 17,-446c7,-12 18,-37 23,-55c12,-40 6,-61 -62,-219c-60,-138 -65,-183 -26,-213c22,-17 33,-19 54,-11c22,7 34,27 64,99c21,50 50,114 65,144c15,30 35,76 45,103l17,49l27,-36c41,-54 84,-153 96,-225c15,-85 29,-111 63,-123c45,-15 77,13 77,66c0,121 -84,306 -190,420l-70,75l0,75l0,76l43,-15c23,-9 74,-16 113,-17l72,-2l132,-258l132,-257l-22,-44c-25,-52 -20,-88 18,-128c73,-79 205,-15 188,90c-3,19 -12,42 -21,52c-14,16 -4,23 162,100c98,45 182,86 188,91c5,6 5,13 -2,20c-8,8 -63,-13 -205,-78c-147,-69 -202,-90 -232,-89l-38,2l-134,249c-117,220 -133,254 -128,285c8,59 -21,86 -98,93c-35,2 -89,15 -120,27c-49,18 -58,25 -58,46c0,33 -25,81 -49,94c-27,14 -71,12 -103,-6zm757,-899c0,-27 -3,-30 -30,-30c-21,0 -31,5 -33,18c-6,33 6,49 35,45c24,-3 28,-8 28,-33z"/>
   <path fill="#4d8ceb" id="svg_4" d="m968,873c-32,-14 -58,-30 -58,-34c0,-8 207,-439 214,-446c2,-2 33,9 70,26l65,29l-107,223c-60,123 -112,224 -118,226c-5,1 -35,-9 -66,-24z"/>
   <path fill="#4d8ceb" id="svg_5" d="m750,757c-69,-34 -127,-63 -129,-65c-4,-2 85,-198 96,-212c5,-6 263,123 263,132c0,9 -99,208 -103,207c-1,0 -58,-28 -127,-62z"/>
   <path fill="#4d8ceb" id="svg_6" d="m863,510c-68,-32 -123,-64 -123,-69c0,-16 94,-201 102,-201c15,0 258,124 256,131c-21,54 -95,198 -103,199c-5,0 -65,-27 -132,-60z"/>
  </g>
 </g>
</svg>