<svg width="159" height="103" xmlns="http://www.w3.org/2000/svg" preserveAspectRatio="xMidYMid meet">

 <g>
  <title>background</title>
  <rect fill="none" id="canvas_background" height="602" width="802" y="-1" x="-1"/>
 </g>
 <g>
  <title>Layer 1</title>
  <g id="svg_1" fill="#000000" transform="translate(0,103) scale(0.10000000149011612,-0.10000000149011612) ">
   <path fill="#4d8ceb" id="svg_2" d="m733,1020c-26,-11 -38,-43 -24,-68c12,-23 66,-32 186,-32l82,0l31,-44l31,-43l-144,-133c-79,-73 -146,-139 -149,-147c-23,-60 16,-141 124,-256c40,-43 71,-79 69,-81c-2,-1 -62,-19 -134,-40c-72,-20 -136,-44 -142,-53c-19,-24 -16,-67 5,-86c27,-24 56,-22 268,23c164,34 192,43 212,65c12,15 22,36 22,48c0,13 -40,77 -90,145c-49,67 -90,125 -90,129c1,9 200,157 204,152c2,-2 20,-36 39,-75c20,-39 43,-74 53,-78c16,-6 219,1 262,10c12,2 28,16 34,29c9,20 8,28 -6,44c-14,15 -38,21 -121,26l-104,7l-32,85c-33,87 -55,119 -203,291l-79,92l-141,-1c-77,0 -151,-4 -163,-9z"/>
   <path fill="#4d8ceb" id="svg_3" d="m1361,973c-66,-33 -90,-116 -51,-180c22,-37 67,-63 107,-63c65,0 133,67 133,130c0,56 -74,130 -130,130c-14,0 -40,-8 -59,-17z"/>
   <path fill="#4d8ceb" id="svg_4" d="m570,795c-85,-7 -172,-14 -192,-14c-35,-1 -38,-3 -38,-31c0,-25 4,-30 33,-34c31,-5 318,-26 357,-26c18,0 20,7 20,60c0,42 -4,60 -12,59c-7,-1 -83,-8 -168,-14z"/>
   <path fill="#4d8ceb" id="svg_5" d="m405,615c-5,-2 -68,-7 -138,-10l-128,-7l3,-32l3,-31l155,-12c85,-6 179,-12 208,-12l52,-1l0,55l0,55l-72,-1c-40,0 -77,-2 -83,-4z"/>
   <path fill="#4d8ceb" id="svg_6" d="m430,290c-197,-165 -225,-192 -228,-220c-4,-39 21,-70 58,-70c19,0 91,48 248,166l221,166l-25,36c-13,21 -27,54 -30,75c-4,20 -9,37 -13,36c-3,0 -107,-85 -231,-189z"/>
   <path fill="#4d8ceb" id="svg_7" d="m153,427l-153,-10l0,-32l0,-32l168,-12c92,-6 186,-11 210,-11l42,0l0,55l0,55l-57,-2c-32,-1 -127,-6 -210,-11z"/>
  </g>
 </g>
</svg>