<svg width="204" height="155" xmlns="http://www.w3.org/2000/svg" preserveAspectRatio="xMidYMid meet">

 <g>
  <title>background</title>
  <rect fill="none" id="canvas_background" height="602" width="802" y="-1" x="-1"/>
 </g>
 <g>
  <title>Layer 1</title>
  <g id="svg_1" fill="#000000" transform="translate(0,155) scale(0.10000000149011612,-0.10000000149011612) ">
   <path stroke="#fff" fill="#4d8ceb" id="svg_2" d="m810,1532c-107,-36 -170,-79 -170,-117c0,-24 40,-65 88,-89c152,-77 487,-76 639,2c123,64 102,137 -57,193c-58,21 -86,24 -255,26c-161,2 -198,0 -245,-15z"/>
   <path stroke="#fff" fill="#4d8ceb" id="svg_3" d="m640,1210c0,-78 0,-79 36,-108c20,-17 73,-42 118,-58c75,-25 93,-27 246,-28c177,0 233,10 331,60c67,34 79,55 79,141l0,72l-63,-30c-98,-45 -191,-62 -352,-61c-153,0 -245,18 -343,65l-52,25l0,-78z"/>
   <path stroke="#fff" fill="#4d8ceb" id="svg_4" d="m190,1204c-80,-21 -162,-65 -180,-97c-13,-24 -13,-30 0,-54c18,-33 101,-77 184,-98c78,-20 226,-30 309,-21l67,8l0,139l0,139l-162,-1c-108,0 -182,-5 -218,-15z"/>
   <path stroke="#fff" fill="#4d8ceb" id="svg_5" d="m640,955c0,-67 3,-79 25,-101c55,-55 195,-94 341,-94l90,0l22,45c12,25 40,65 62,89c22,24 40,45 40,47c0,3 -63,3 -139,1c-162,-5 -270,12 -370,59c-35,16 -65,29 -67,29c-2,0 -4,-34 -4,-75z"/>
   <path stroke="#fff" fill="#4d8ceb" id="svg_6" d="m1490,1009c-134,-26 -274,-139 -333,-269c-53,-116 -48,-267 11,-385c115,-230 386,-321 621,-207c144,70 250,242 251,407c1,284 -271,508 -550,454zm214,-207c17,-10 41,-34 54,-53c20,-28 23,-44 20,-94c-6,-99 -62,-152 -168,-162c-70,-6 -92,-13 -87,-26c2,-7 29,-14 63,-17c51,-4 59,-8 59,-25c0,-18 -8,-20 -62,-23l-63,-3l0,-44c0,-47 -19,-75 -50,-75c-31,0 -50,28 -50,75c0,34 -4,44 -20,48c-12,3 -20,14 -20,26c0,14 6,21 20,21c19,0 20,7 20,174c0,129 3,177 13,183c44,27 221,24 271,-5z"/>
   <path stroke="#fff" fill="#4d8ceb" id="svg_7" d="m1520,656l0,-96l28,0c47,0 101,20 117,43c8,12 15,40 15,63c0,57 -24,77 -100,82l-60,4l0,-96z"/>
   <path stroke="#fff" fill="#4d8ceb" id="svg_8" d="m0,879c0,-75 1,-78 34,-107c40,-35 118,-66 205,-82c65,-12 287,-15 315,-4c13,5 16,22 16,93l0,86l-163,0c-178,1 -247,13 -349,63l-58,29l0,-78z"/>
   <path stroke="#fff" fill="#4d8ceb" id="svg_9" d="m640,700l0,-79l38,-31c56,-46 177,-82 287,-83l90,-2l3,86l3,86l-87,7c-115,8 -205,30 -276,66l-58,28l0,-78z"/>
   <path stroke="#fff" fill="#4d8ceb" id="svg_10" d="m0,621c0,-78 0,-79 35,-105c98,-75 297,-112 483,-90l52,7l0,88l0,89l-152,0c-174,0 -259,15 -355,59l-63,30l0,-78z"/>
   <path stroke="#fff" fill="#4d8ceb" id="svg_11" d="m640,448c0,-38 5,-78 10,-88c16,-30 90,-68 173,-90c88,-22 301,-38 310,-23c4,5 -9,45 -28,89c-39,90 -20,80 -210,104c-58,7 -119,23 -172,45l-83,33l0,-70z"/>
   <path stroke="#fff" fill="#4d8ceb" id="svg_12" d="m0,375c0,-64 3,-77 25,-103c53,-63 204,-105 380,-105c171,0 165,-4 165,101l0,87l-168,0c-147,0 -176,3 -242,23c-41,13 -94,34 -117,47l-43,24l0,-74z"/>
   <path stroke="#fff" fill="#4d8ceb" id="svg_13" d="m640,189c0,-75 1,-78 34,-107c70,-62 130,-75 343,-80c198,-4 240,1 343,44l35,15l-54,29c-30,17 -70,42 -90,57c-36,28 -37,28 -196,28c-177,1 -258,16 -357,64l-58,28l0,-78z"/>
  </g>
 </g>
</svg>