<svg width="223" height="123" xmlns="http://www.w3.org/2000/svg" preserveAspectRatio="xMidYMid meet">

 <g>
  <title>background</title>
  <rect fill="none" id="canvas_background" height="602" width="802" y="-1" x="-1"/>
 </g>
 <g>
  <title>Layer 1</title>
  <g id="svg_1" fill="#000000" transform="translate(0,123) scale(0.10000000149011612,-0.10000000149011612) ">
   <path fill="#4d8ceb" id="svg_2" d="m488,1203c-8,-10 -18,-26 -21,-35c-5,-15 -19,-18 -85,-18c-86,0 -109,-12 -97,-50c6,-19 13,-20 260,-20c139,0 260,-3 269,-6c19,-7 21,-35 4,-52c-9,-9 -96,-12 -329,-12c-336,0 -346,-1 -337,-47c3,-17 24,-18 288,-23c157,-3 286,-7 286,-8c11,-15 12,-37 3,-48c-9,-11 -59,-14 -245,-14c-220,0 -235,-1 -254,-20c-16,-16 -18,-35 -6,-52c0,-1 143,-5 316,-8c269,-4 315,-7 317,-20c8,-44 4,-45 -389,-50l-373,-5l0,-30l0,-30l266,-3c287,-3 304,-6 279,-51c-10,-19 -20,-21 -114,-21c-122,0 -111,15 -121,-166c-9,-151 -7,-154 104,-154l77,0l12,44c26,100 125,180 222,180c96,0 178,-76 188,-173l5,-51l336,0l337,0l12,44c26,98 126,180 221,180c97,0 179,-75 189,-173c4,-44 7,-51 26,-51c60,0 70,36 82,273c7,145 7,149 -16,180c-54,73 -206,239 -231,253c-20,10 -64,14 -155,14l-126,0l6,43c11,79 9,166 -4,182c-11,13 -84,15 -600,15c-547,0 -588,-1 -602,-17zm1463,-296c9,-7 51,-53 93,-102l77,-90l-192,-3c-105,-1 -194,0 -196,2c-3,2 -2,50 2,105l8,101l96,0c60,-1 102,-5 112,-13z"/>
   <path fill="#4d8ceb" id="svg_3" d="m745,421c-140,-63 -152,-272 -18,-327c90,-38 199,19 233,122c16,47 8,119 -17,153c-51,68 -122,87 -198,52zm109,-92c38,-30 37,-90 -3,-130c-36,-36 -73,-37 -106,-4c-36,35 -34,88 4,126c35,34 68,37 105,8z"/>
   <path fill="#4d8ceb" id="svg_4" d="m1842,423c-104,-51 -143,-193 -75,-281c104,-136 320,-24 300,155c-12,110 -127,175 -225,126zm112,-94c54,-43 22,-141 -51,-155c-25,-5 -37,-1 -57,19c-37,37 -35,89 3,128c35,34 68,37 105,8z"/>
  </g>
 </g>
</svg>