<svg width="176" height="176" xmlns="http://www.w3.org/2000/svg" preserveAspectRatio="xMidYMid meet">

 <g>
  <title>background</title>
  <rect fill="none" id="canvas_background" height="602" width="802" y="-1" x="-1"/>
 </g>
 <g>
  <title>Layer 1</title>
  <g id="svg_1" fill="4D8CEB" transform="translate(0,176) scale(0.10000000149011612,-0.10000000149011612) ">
   <path fill="#4d8ceb" id="svg_2" d="m835,1632c-6,-4 -23,-24 -39,-45c-40,-54 -68,-63 -120,-37c-76,36 -126,17 -126,-47c0,-43 -19,-92 -40,-103c-10,-6 -35,-10 -55,-10c-86,0 -118,-52 -75,-122c36,-59 27,-79 -71,-162c-24,-21 -24,-61 0,-82c98,-83 107,-103 71,-162c-43,-70 -11,-122 75,-122c20,0 45,-4 55,-10c21,-11 40,-60 40,-106c0,-58 52,-82 110,-49c27,15 88,20 105,7c6,-4 22,-23 35,-42c30,-44 38,-50 72,-50c21,0 35,10 59,42c17,24 38,47 46,52c24,13 70,9 95,-8c30,-22 81,-20 101,2c11,12 17,36 17,66c0,65 31,96 95,96c35,0 52,6 70,25c30,29 31,44 5,95c-27,54 -26,87 6,113c58,47 84,76 84,92c0,15 -18,34 -87,95c-29,24 -30,68 -3,112c26,43 25,64 -5,93c-18,19 -35,25 -70,25c-65,0 -95,31 -95,98c0,80 -44,102 -130,63c-56,-25 -87,-14 -128,44c-25,35 -38,45 -59,45c-16,0 -33,-4 -38,-8zm305,-412c38,-38 27,-57 -128,-212c-110,-110 -154,-148 -172,-148c-37,0 -200,165 -200,202c0,32 39,63 67,54c10,-3 43,-31 73,-61l54,-55l121,120c128,126 148,137 185,100z"/>
   <path fill="#4d8ceb" id="svg_3" d="m1255,502c-48,-57 -121,-76 -193,-51c-29,10 -34,8 -67,-25c-20,-20 -39,-36 -43,-36c-34,-1 -30,-21 24,-151c31,-74 60,-138 64,-143c4,-4 41,31 81,78c47,56 78,85 88,82c30,-8 201,-17 201,-11c0,10 -112,279 -119,286c-3,3 -19,-10 -36,-29z"/>
   <path fill="#4d8ceb" id="svg_4" d="m382,384l-61,-146l87,6c48,4 98,9 112,12c21,3 35,-8 95,-81c39,-46 73,-85 76,-85c4,0 9,6 12,13c3,6 30,71 60,143l55,131l-33,16c-19,9 -44,29 -56,46c-21,28 -22,29 -55,15c-18,-8 -48,-14 -66,-14c-45,1 -113,33 -133,64c-10,14 -21,26 -25,26c-4,0 -34,-66 -68,-146z"/>
  </g>
 </g>
</svg>