<?xml version="1.0" standalone="no"?>
<!DOCTYPE svg PUBLIC "-//W3C//DTD SVG 20010904//EN"
 "http://www.w3.org/TR/2001/REC-SVG-20010904/DTD/svg10.dtd">
<svg version="1.0" xmlns="http://www.w3.org/2000/svg"
 width="43.000000pt" height="37.000000pt" viewBox="0 0 43.000000 37.000000"
 preserveAspectRatio="xMidYMid meet">

<g transform="translate(0.000000,37.000000) scale(0.100000,-0.100000)"
fill="#000000" stroke="none">
<path d="M104 351 c-23 -10 -54 -36 -70 -57 -26 -33 -29 -46 -29 -109 0 -64 3
-76 29 -109 49 -64 161 -100 161 -51 0 14 -8 21 -25 23 -50 6 -81 26 -105 67
-30 50 -31 83 -6 133 24 47 67 72 123 72 75 0 138 -59 138 -129 0 -27 19 -37
37 -19 20 20 2 85 -34 129 -55 64 -143 85 -219 50z"/>
<path d="M167 294 c-9 -9 -9 -87 -1 -108 9 -22 104 -23 104 -1 0 10 -10 15
-34 15 -34 0 -35 1 -38 47 -3 44 -15 62 -31 47z"/>
<path d="M237 143 c-14 -13 -6 -23 18 -23 18 0 25 -5 25 -19 0 -11 -11 -28
-25 -39 -14 -11 -25 -25 -25 -31 0 -14 77 -15 85 -1 3 6 -3 10 -14 10 -25 0
-27 13 -6 30 20 17 19 66 -1 74 -21 8 -49 8 -57 -1z"/>
<path d="M356 107 c-14 -24 -26 -47 -26 -50 0 -4 14 -7 30 -7 20 0 30 -5 30
-15 0 -8 4 -15 10 -15 18 0 27 35 21 80 -8 62 -32 64 -65 7z m34 -12 c0 -15
-6 -25 -15 -25 -12 0 -13 4 -3 25 6 14 13 25 15 25 1 0 3 -11 3 -25z"/>
</g>
</svg>
