<?xml version="1.0" standalone="no"?>
<!DOCTYPE svg PUBLIC "-//W3C//DTD SVG 20010904//EN"
 "http://www.w3.org/TR/2001/REC-SVG-20010904/DTD/svg10.dtd">
<svg version="1.0" xmlns="http://www.w3.org/2000/svg"
 width="39.000000pt" height="32.000000pt" viewBox="0 0 39.000000 32.000000"
 preserveAspectRatio="xMidYMid meet">

<g transform="translate(0.000000,32.000000) scale(0.100000,-0.100000)"
fill="#000000" stroke="none">
<path d="M0 160 l0 -150 195 0 195 0 0 150 0 150 -195 0 -195 0 0 -150z m275
50 c-38 -38 -74 -70 -80 -70 -6 0 -42 32 -80 70 l-69 70 149 0 149 0 -69 -70z
m-198 -97 l-47 -48 0 95 0 95 47 -48 48 -47 -48 -47z m283 45 l0 -93 -47 47
-47 48 44 45 c24 25 45 45 47 45 2 0 3 -42 3 -92z m-165 -48 c10 0 26 7 35 15
14 13 21 10 65 -35 l49 -50 -149 0 -149 0 49 50 c44 45 51 48 65 35 9 -8 25
-15 35 -15z"/>
</g>
</svg>
