<?xml version="1.0" standalone="no"?>
<!DOCTYPE svg PUBLIC "-//W3C//DTD SVG 20010904//EN"
 "http://www.w3.org/TR/2001/REC-SVG-20010904/DTD/svg10.dtd">
<svg version="1.0" xmlns="http://www.w3.org/2000/svg"
 width="31.000000pt" height="32.000000pt" viewBox="0 0 31.000000 32.000000"
 preserveAspectRatio="xMidYMid meet">

<g transform="translate(0.000000,32.000000) scale(0.100000,-0.100000)"
fill="#000000" stroke="none">
<path d="M21 299 c-51 -55 4 -204 100 -275 41 -30 108 -33 133 -6 15 18 15 21
-4 45 -28 36 -57 43 -81 21 -19 -17 -21 -17 -44 11 -14 17 -33 48 -45 70 l-20
39 26 21 c23 18 25 24 17 55 -12 44 -50 53 -82 19z"/>
<path d="M170 310 c0 -5 17 -18 39 -29 43 -22 71 -70 71 -121 0 -43 24 -34 28
11 3 44 -26 98 -68 127 -34 23 -70 29 -70 12z"/>
<path d="M157 264 c-3 -4 8 -16 26 -28 28 -19 38 -36 53 -94 6 -21 24 -3 24
24 0 62 -71 130 -103 98z"/>
<path d="M145 219 c-4 -6 2 -17 14 -25 12 -8 21 -24 21 -35 0 -10 7 -19 15
-19 21 0 19 43 -2 62 -29 25 -41 29 -48 17z"/>
</g>
</svg>
