<?xml version="1.0" standalone="no"?>
<!DOCTYPE svg PUBLIC "-//W3C//DTD SVG 20010904//EN"
 "http://www.w3.org/TR/2001/REC-SVG-20010904/DTD/svg10.dtd">
<svg version="1.0" xmlns="http://www.w3.org/2000/svg"
 width="234.000000pt" height="325.000000pt" viewBox="0 0 234.000000 325.000000"
 preserveAspectRatio="xMidYMid meet">
<metadata>
Created by potrace 1.16, written by Peter Selinger 2001-2019
</metadata>
<g transform="translate(0.000000,325.000000) scale(0.100000,-0.100000)"
fill="#000000" stroke="none">
<path d="M950 3235 c-134 -22 -256 -61 -380 -122 -63 -31 -116 -60 -118 -65
-2 -4 -10 -8 -17 -8 -7 0 -15 -3 -17 -8 -1 -4 -32 -30 -68 -59 -104 -83 -194
-182 -295 -328 -64 -92 -72 -150 -28 -192 40 -39 83 -75 113 -94 14 -9 36 -26
50 -38 14 -11 30 -24 35 -28 220 -166 248 -185 285 -190 37 -5 43 -2 83 38 23
24 67 73 97 109 168 200 256 250 446 250 148 0 264 -45 341 -134 62 -70 68
-171 16 -274 -33 -64 -91 -110 -238 -183 -54 -28 -131 -73 -170 -101 -150
-109 -289 -281 -337 -417 -26 -77 -28 -302 -3 -352 33 -62 14 -60 381 -60
l337 0 27 26 c28 27 50 83 50 128 0 14 5 29 10 32 6 4 8 10 5 15 -2 4 3 18 13
31 10 13 24 37 32 53 28 54 127 140 232 200 93 54 191 121 226 154 8 7 29 24
48 38 73 56 160 200 204 339 35 108 40 321 10 435 -36 142 -126 309 -225 419
-148 162 -390 303 -641 371 -103 28 -376 36 -504 15z"/>
<path d="M782 806 c-13 -7 -32 -26 -43 -42 -18 -27 -19 -48 -19 -353 1 -287 3
-328 18 -354 33 -56 41 -57 401 -57 l329 0 31 26 c49 41 53 69 49 412 l-3 314
-37 34 -38 34 -332 0 c-252 -1 -339 -4 -356 -14z"/>
</g>
</svg>
