<svg width="80" height="80" viewBox="0 0 80 80" fill="none" xmlns="http://www.w3.org/2000/svg">
<circle cx="40" cy="40" r="40" fill="#4D8CEB"/>
<path d="M38.536 64.512C35.3787 64.512 32.3067 64.0213 29.32 63.04C26.376 62.0587 23.9653 60.736 22.088 59.072L25.032 54.016C26.5253 55.424 28.4667 56.576 30.856 57.472C33.2453 58.368 35.784 58.816 38.472 58.816C41.8853 58.816 44.5093 58.0907 46.344 56.64C48.1787 55.1893 49.096 53.248 49.096 50.816C49.096 49.152 48.6907 47.7013 47.88 46.464C47.0693 45.2267 45.6613 44.288 43.656 43.648C41.6933 42.9653 38.984 42.624 35.528 42.624H25.352L27.72 19.2H53V24.768H30.088L33.416 21.632L31.56 40.128L28.232 37.056H36.872C41.352 37.056 44.9573 37.632 47.688 38.784C50.4187 39.936 52.4027 41.536 53.64 43.584C54.8773 45.5893 55.496 47.9147 55.496 50.56C55.496 53.12 54.8773 55.4667 53.64 57.6C52.4027 59.6907 50.5253 61.376 48.008 62.656C45.5333 63.8933 42.376 64.512 38.536 64.512Z" fill="white"/>
</svg>
