<?xml version="1.0" standalone="no"?>
<!DOCTYPE svg PUBLIC "-//W3C//DTD SVG 20010904//EN"
 "http://www.w3.org/TR/2001/REC-SVG-20010904/DTD/svg10.dtd">
<svg version="1.0" xmlns="http://www.w3.org/2000/svg"
 width="75.000000pt" height="72.000000pt" viewBox="0 0 75.000000 72.000000"
 preserveAspectRatio="xMidYMid meet">

<g transform="translate(0.000000,72.000000) scale(0.100000,-0.100000)"
fill="#000000" stroke="none">
<path d="M685 673 c-72 -46 -173 -143 -331 -314 -85 -93 -159 -169 -163 -169
-4 0 -18 34 -30 75 l-23 75 -47 0 c-28 0 -55 -7 -69 -18 l-23 -18 64 -114 c74
-136 109 -190 120 -190 13 0 41 35 114 145 85 129 227 313 342 443 110 125
110 127 46 85z"/>
</g>
</svg>
