<svg width="44" height="42" viewBox="0 0 44 42" fill="none" xmlns="http://www.w3.org/2000/svg">
<path d="M24.3938 0.407196C17.766 0.407196 11.9 3.7159 8.3493 8.76504C9.08414 9.24444 9.80043 9.90185 10.4932 10.747C13.1421 6.78619 17.4252 4.00729 22.3807 3.40991L24.3936 6.8161L26.4064 3.40984C34.0239 4.32787 40.0788 10.3825 40.9972 17.9999L37.5905 20.013L40.9973 22.0262C40.3833 27.119 37.4667 31.5036 33.3289 34.1314C33.5924 34.7322 33.7409 35.3466 33.7671 35.98C33.7865 36.4428 33.7387 36.8802 33.6428 37.2954C39.802 33.9859 44 27.4816 44 20.0134C44 9.20224 35.205 0.407196 24.3938 0.407196ZM29.3971 32.6967C24.8774 29.0643 23.6136 30.8498 21.5628 32.9003C20.1311 34.3325 16.508 31.3417 13.3796 28.2132C10.251 25.0842 7.2608 21.4617 8.69238 20.0298C10.7433 17.9792 12.5283 16.7147 8.89491 12.1962C5.26276 7.67604 2.84146 11.1463 0.854919 13.133C-1.43855 15.4256 0.734063 23.9695 9.17818 32.4149C17.6234 40.8592 26.1672 43.0303 28.4593 40.7385C30.4456 38.7518 33.9169 36.3308 29.3971 32.6967ZM15.6319 23.0816C15.6319 19.0641 20.3353 18.3484 20.3353 16.7807C20.3353 16.0199 19.7264 15.7006 19.1632 15.7006C18.1281 15.7006 17.5503 16.8569 17.5503 16.8569L15.5716 15.5329C15.5716 15.5329 16.5762 13.1891 19.407 13.1891C21.1875 13.1891 23.1204 14.209 23.1204 16.5222C23.1204 19.9162 18.737 20.5709 18.6608 21.9711H23.288V24.2538H15.754C15.6777 23.8278 15.6319 23.4475 15.6319 23.0816ZM24.4007 20.0078L28.6018 13.3715H31.8587V19.414H33.1522V21.6206H31.8587V24.254H29.2254V21.6206H24.4007V20.0078H24.4007ZM29.2253 19.414V16.9788C29.2253 16.3851 29.3167 15.7609 29.3167 15.7609H29.2863C29.2863 15.7609 29.0583 16.4308 28.7535 16.8874L27.1102 19.3836V19.4141L29.2253 19.414Z" fill="black"/>
</svg>
