<svg width="213" height="30" viewBox="0 0 213 30" fill="none" xmlns="http://www.w3.org/2000/svg">
<path d="M0.96 29V0.639998H6.48V14.12L18.4 0.599998H24.48L13.6 13.2L25.16 29H18.92L10.08 16.76L6.48 20.52V29H0.96ZM38.1972 29.2C36.1172 29.2 34.2239 28.8 32.5172 28C30.8372 27.2 29.3839 26.12 28.1572 24.76C26.9572 23.3733 26.0239 21.8267 25.3572 20.12C24.6905 18.3867 24.3572 16.6133 24.3572 14.8C24.3572 12.9067 24.7039 11.1067 25.3972 9.4C26.1172 7.66667 27.0905 6.13333 28.3172 4.8C29.5705 3.44 31.0372 2.37333 32.7172 1.6C34.4239 0.799998 36.2905 0.399999 38.3172 0.399999C40.3705 0.399999 42.2372 0.813332 43.9172 1.64C45.6239 2.46666 47.0772 3.57333 48.2772 4.96C49.4772 6.34667 50.4105 7.89333 51.0772 9.6C51.7439 11.3067 52.0772 13.0667 52.0772 14.88C52.0772 16.7467 51.7305 18.5467 51.0372 20.28C50.3439 21.9867 49.3705 23.52 48.1172 24.88C46.8905 26.2133 45.4239 27.2667 43.7172 28.04C42.0372 28.8133 40.1972 29.2 38.1972 29.2ZM29.9572 14.8C29.9572 16.0267 30.1439 17.2133 30.5172 18.36C30.8905 19.5067 31.4239 20.5333 32.1172 21.44C32.8372 22.32 33.7039 23.0267 34.7172 23.56C35.7572 24.0667 36.9305 24.32 38.2372 24.32C39.5705 24.32 40.7572 24.0533 41.7972 23.52C42.8372 22.96 43.7039 22.2267 44.3972 21.32C45.0905 20.3867 45.6105 19.36 45.9572 18.24C46.3305 17.0933 46.5172 15.9467 46.5172 14.8C46.5172 13.5733 46.3172 12.4 45.9172 11.28C45.5439 10.1333 44.9972 9.12 44.2772 8.24C43.5839 7.33333 42.7172 6.62667 41.6772 6.12C40.6639 5.58667 39.5172 5.32 38.2372 5.32C36.8772 5.32 35.6772 5.6 34.6372 6.16C33.6239 6.69333 32.7705 7.41333 32.0772 8.32C31.3839 9.22667 30.8505 10.24 30.4772 11.36C30.1305 12.48 29.9572 13.6267 29.9572 14.8ZM54.0047 24.84L69.8447 5.44H54.4447V0.599998H76.4047V4.76L61.0847 24.16H76.5247V29H54.0047V24.84ZM88.5628 0.599998H94.1628L104.603 29H98.9228L96.2828 21.92H86.3628L83.7628 29H78.0828L88.5628 0.599998ZM95.2828 18.04L91.3628 6.32L87.2828 18.04H95.2828ZM104.904 14.6C104.904 12.8667 105.211 11.1733 105.824 9.52C106.464 7.84 107.384 6.32 108.584 4.96C109.784 3.57333 111.251 2.48 112.984 1.68C114.717 0.853332 116.691 0.439998 118.904 0.439998C121.517 0.439998 123.771 1.01333 125.664 2.16C127.584 3.30667 129.011 4.8 129.944 6.64L125.704 9.56C125.224 8.49333 124.597 7.65333 123.824 7.04C123.051 6.4 122.224 5.96 121.344 5.72C120.464 5.45333 119.597 5.32 118.744 5.32C117.357 5.32 116.144 5.6 115.104 6.16C114.091 6.72 113.237 7.45333 112.544 8.36C111.851 9.26667 111.331 10.28 110.984 11.4C110.664 12.52 110.504 13.64 110.504 14.76C110.504 16.0133 110.704 17.2267 111.104 18.4C111.504 19.5467 112.064 20.5733 112.784 21.48C113.531 22.36 114.411 23.0667 115.424 23.6C116.464 24.1067 117.597 24.36 118.824 24.36C119.704 24.36 120.597 24.2133 121.504 23.92C122.411 23.6267 123.251 23.16 124.024 22.52C124.797 21.88 125.397 21.0533 125.824 20.04L130.344 22.64C129.784 24.0533 128.864 25.2533 127.584 26.24C126.331 27.2267 124.917 27.9733 123.344 28.48C121.771 28.9867 120.211 29.24 118.664 29.24C116.637 29.24 114.784 28.8267 113.104 28C111.424 27.1467 109.971 26.0267 108.744 24.64C107.544 23.2267 106.597 21.6533 105.904 19.92C105.237 18.16 104.904 16.3867 104.904 14.6ZM157.926 0.599998V29H152.446V16.88H139.566V29H134.046V0.599998H139.566V12.08H152.446V0.599998H157.926ZM183.571 24.16V29H163.851V0.599998H183.211V5.44H169.371V12.28H181.331V16.76H169.371V24.16H183.571ZM187.874 29V0.639998H193.394V14.12L205.314 0.599998H211.394L200.514 13.2L212.074 29H205.834L196.994 16.76L193.394 20.52V29H187.874Z" fill="#4D8CEB"/>
</svg>
