<svg width="134" height="134" viewBox="0 0 134 134" fill="none" xmlns="http://www.w3.org/2000/svg">
<path d="M67 4.07318L86.5238 38.7118L86.9732 39.5092L87.8705 39.6903L126.847 47.5545L99.9369 76.8267L99.3174 77.5005L99.4224 78.4099L103.987 117.909L67.8323 101.361L67 100.98L66.1677 101.361L30.0125 117.909L34.5776 78.4099L34.6826 77.5005L34.0631 76.8267L7.15304 47.5545L46.1295 39.6903L47.0268 39.5092L47.4762 38.7118L67 4.07318Z" stroke="#4D8CEB" stroke-width="4"/>
<path d="M66.41 86.44C63.6967 86.44 61.0567 86.0183 58.49 85.175C55.96 84.3317 53.8883 83.195 52.275 81.765L54.805 77.42C56.0883 78.63 57.7567 79.62 59.81 80.39C61.8633 81.16 64.0633 81.545 66.41 81.545C69.27 81.545 71.4883 80.94 73.065 79.73C74.6783 78.4833 75.485 76.815 75.485 74.725C75.485 72.7083 74.715 71.095 73.175 69.885C71.6717 68.6383 69.27 68.015 65.97 68.015H62.89V64.165L74.33 50.085L75.1 52.285H54.035V47.5H79.445V51.24L68.06 65.265L65.2 63.56H67.015C71.6717 63.56 75.155 64.605 77.465 66.695C79.8117 68.785 80.985 71.4433 80.985 74.67C80.985 76.8333 80.4533 78.8133 79.39 80.61C78.3267 82.4067 76.7133 83.8367 74.55 84.9C72.4233 85.9267 69.71 86.44 66.41 86.44Z" fill="#4D8CEB"/>
</svg>
