<svg width="134" height="134" viewBox="0 0 134 134" fill="none" xmlns="http://www.w3.org/2000/svg">
<path d="M67 4.07318L86.5238 38.7118L86.9732 39.5092L87.8705 39.6903L126.847 47.5545L99.9369 76.8267L99.3174 77.5005L99.4224 78.4099L103.987 117.909L67.8323 101.361L67 100.98L66.1677 101.361L30.0125 117.909L34.5776 78.4099L34.6826 77.5005L34.0631 76.8267L7.15304 47.5545L46.1295 39.6903L47.0268 39.5092L47.4762 38.7118L67 4.07318Z" stroke="#4D8CEB" stroke-width="4"/>
<path d="M67.07 86.44C64.3567 86.44 61.7167 86.0183 59.15 85.175C56.62 84.3317 54.5483 83.195 52.935 81.765L55.465 77.42C56.7483 78.63 58.4167 79.62 60.47 80.39C62.5233 81.16 64.705 81.545 67.015 81.545C69.9483 81.545 72.2033 80.9217 73.78 79.675C75.3567 78.4283 76.145 76.76 76.145 74.67C76.145 73.24 75.7967 71.9933 75.1 70.93C74.4033 69.8667 73.1933 69.06 71.47 68.51C69.7833 67.9233 67.455 67.63 64.485 67.63H55.74L57.775 47.5H79.5V52.285H59.81L62.67 49.59L61.075 65.485L58.215 62.845H65.64C69.49 62.845 72.5883 63.34 74.935 64.33C77.2817 65.32 78.9867 66.695 80.05 68.455C81.1133 70.1783 81.645 72.1767 81.645 74.45C81.645 76.65 81.1133 78.6667 80.05 80.5C78.9867 82.2967 77.3733 83.745 75.21 84.845C73.0833 85.9083 70.37 86.44 67.07 86.44Z" fill="#4D8CEB"/>
</svg>
