<svg width="134" height="134" viewBox="0 0 134 134" fill="none" xmlns="http://www.w3.org/2000/svg">
<path d="M67 4.07318L86.5238 38.7118L86.9732 39.5092L87.8705 39.6903L126.847 47.5545L99.9369 76.8267L99.3174 77.5005L99.4224 78.4099L103.987 117.909L67.8323 101.361L67 100.98L66.1677 101.361L30.0125 117.909L34.5776 78.4099L34.6826 77.5005L34.0631 76.8267L7.15304 47.5545L46.1295 39.6903L47.0268 39.5092L47.4762 38.7118L67 4.07318Z" stroke="#4D8CEB" stroke-width="4"/>
<path d="M54.035 86V82.26L69.71 67.135C71.1033 65.815 72.13 64.66 72.79 63.67C73.4867 62.6433 73.945 61.7083 74.165 60.865C74.4217 59.985 74.55 59.1417 74.55 58.335C74.55 56.355 73.8533 54.7967 72.46 53.66C71.0667 52.5233 69.0317 51.955 66.355 51.955C64.3017 51.955 62.45 52.3033 60.8 53C59.15 53.66 57.72 54.705 56.51 56.135L52.77 52.89C54.2367 51.02 56.1983 49.59 58.655 48.6C61.1483 47.5733 63.88 47.06 66.85 47.06C69.5267 47.06 71.855 47.5 73.835 48.38C75.815 49.2233 77.3367 50.4517 78.4 52.065C79.5 53.6783 80.05 55.585 80.05 57.785C80.05 59.0317 79.885 60.26 79.555 61.47C79.225 62.68 78.6017 63.9633 77.685 65.32C76.7683 66.6767 75.4483 68.1983 73.725 69.885L59.755 83.36L58.435 81.215H81.7V86H54.035Z" fill="#4D8CEB"/>
</svg>
