<svg width="134" height="134" viewBox="0 0 134 134" fill="none" xmlns="http://www.w3.org/2000/svg">
<path d="M67 4.07318L86.5238 38.7118L86.9732 39.5092L87.8705 39.6903L126.847 47.5545L99.9369 76.8267L99.3174 77.5005L99.4224 78.4099L103.987 117.909L67.8323 101.361L67 100.98L66.1677 101.361L30.0125 117.909L34.5776 78.4099L34.6826 77.5005L34.0631 76.8267L7.15304 47.5545L46.1295 39.6903L47.0268 39.5092L47.4762 38.7118L67 4.07318Z" stroke="#4D8CEB" stroke-width="4"/>
<path d="M49.09 76.54V72.69L68.78 47.5H74.72L55.195 72.69L52.39 71.81H83.135V76.54H49.09ZM70.485 86V76.54L70.65 71.81V63.45H75.82V86H70.485Z" fill="#4D8CEB"/>
</svg>
