<svg width="124" height="124" viewBox="0 0 124 124" fill="none" xmlns="http://www.w3.org/2000/svg">
<circle cx="62" cy="62" r="62" fill="white"/>
<path d="M46.368 85V80.648L64.608 63.048C66.2293 61.512 67.424 60.168 68.192 59.016C69.0027 57.8213 69.536 56.7333 69.792 55.752C70.0907 54.728 70.24 53.7467 70.24 52.808C70.24 50.504 69.4293 48.6907 67.808 47.368C66.1867 46.0453 63.8187 45.384 60.704 45.384C58.3147 45.384 56.16 45.7893 54.24 46.6C52.32 47.368 50.656 48.584 49.248 50.248L44.896 46.472C46.6027 44.296 48.8853 42.632 51.744 41.48C54.6453 40.2853 57.824 39.688 61.28 39.688C64.3947 39.688 67.104 40.2 69.408 41.224C71.712 42.2053 73.4827 43.6347 74.72 45.512C76 47.3893 76.64 49.608 76.64 52.168C76.64 53.6187 76.448 55.048 76.064 56.456C75.68 57.864 74.9547 59.3573 73.888 60.936C72.8213 62.5147 71.2853 64.2853 69.28 66.248L53.024 81.928L51.488 79.432H78.56V85H46.368Z" fill="black"/>
</svg>
