<?xml version="1.0" standalone="no"?>
<!DOCTYPE svg PUBLIC "-//W3C//DTD SVG 20010904//EN"
 "http://www.w3.org/TR/2001/REC-SVG-20010904/DTD/svg10.dtd">
<svg version="1.0" xmlns="http://www.w3.org/2000/svg"
 width="124.000000pt" height="131.000000pt" viewBox="0 0 124.000000 131.000000"
 preserveAspectRatio="xMidYMid meet">

<g transform="translate(0.000000,131.000000) scale(0.100000,-0.100000)"
fill="#000000" stroke="none">
<path d="M584 1238 c-17 -29 -43 -74 -58 -100 l-27 -47 33 10 c41 11 121 11
171 0 l38 -9 -24 41 c-14 23 -39 68 -57 100 -17 31 -35 57 -39 57 -3 0 -20
-24 -37 -52z"/>
<path d="M244 1109 c3 -35 9 -88 12 -117 l7 -54 47 47 c26 25 69 57 96 70 l49
24 -86 39 c-141 65 -133 65 -125 -9z"/>
<path d="M960 1157 c-14 -6 -59 -26 -100 -45 l-74 -33 42 -19 c23 -11 66 -42
96 -70 l53 -50 6 47 c15 118 19 183 11 182 -5 0 -20 -6 -34 -12z"/>
<path d="M541 1069 c-222 -43 -378 -263 -342 -481 47 -288 349 -444 611 -316
164 80 261 268 230 445 -31 181 -167 318 -349 353 -61 11 -88 11 -150 -1z"/>
<path d="M113 876 c-50 -11 -95 -24 -99 -28 -3 -4 27 -43 67 -88 l74 -81 17
72 c10 40 27 88 38 106 30 52 37 50 -97 19z"/>
<path d="M1012 894 c38 -79 50 -111 58 -155 6 -29 12 -54 13 -56 5 -4 147 154
147 164 0 5 -39 17 -87 26 -49 9 -99 20 -112 24 -13 3 -22 2 -19 -3z"/>
<path d="M81 539 c-40 -44 -70 -83 -66 -87 6 -7 208 -52 212 -48 1 1 -9 25
-23 53 -13 29 -29 76 -34 104 -6 29 -12 54 -13 56 -2 1 -36 -33 -76 -78z"/>
<path d="M1075 585 c-10 -60 -25 -106 -47 -144 -10 -18 -18 -35 -16 -36 7 -6
212 42 214 51 2 5 -30 45 -71 89 l-73 79 -7 -39z"/>
<path d="M257 313 c-14 -105 -19 -183 -14 -183 6 0 185 78 200 87 5 3 -13 17
-39 30 -27 13 -70 45 -95 69 l-46 46 -6 -49z"/>
<path d="M932 315 c-23 -23 -65 -53 -92 -66 -27 -13 -46 -26 -42 -30 13 -12
195 -89 200 -85 3 4 -17 218 -21 222 -1 1 -21 -17 -45 -41z"/>
<path d="M524 164 c68 -117 91 -154 96 -154 7 0 120 193 116 197 -1 1 -20 -2
-42 -8 -39 -11 -142 -7 -179 7 -17 7 -16 2 9 -42z"/>
</g>
</svg>
