<?xml version="1.0" standalone="no"?>
<!DOCTYPE svg PUBLIC "-//W3C//DTD SVG 20010904//EN"
 "http://www.w3.org/TR/2001/REC-SVG-20010904/DTD/svg10.dtd">
<svg version="1.0" xmlns="http://www.w3.org/2000/svg"
 width="128.000000pt" height="115.000000pt" viewBox="0 0 128.000000 115.000000"
 preserveAspectRatio="xMidYMid meet">

<g transform="translate(0.000000,115.000000) scale(0.100000,-0.100000)"
fill="#000000" stroke="none">
<path d="M1034 1099 c-27 -28 -32 -30 -76 -24 -27 4 -48 3 -48 -2 1 -4 9 -24
19 -43 19 -34 19 -36 0 -72 -10 -20 -19 -40 -19 -44 0 -3 22 -3 49 1 47 6 50
5 77 -29 33 -41 44 -38 44 10 0 38 26 70 65 80 34 9 31 20 -11 40 -36 17 -54
46 -54 90 0 32 -10 30 -46 -7z"/>
<path d="M369 1086 c-136 -48 -252 -152 -314 -281 -157 -329 33 -714 391 -790
87 -18 141 -18 227 0 95 20 192 70 262 137 l60 57 -95 1 c-167 1 -291 50 -399
159 -184 185 -220 464 -87 684 19 31 31 57 28 57 -4 0 -37 -11 -73 -24z"/>
<path d="M556 993 c-11 -34 -34 -53 -64 -53 l-26 0 26 -27 c21 -22 25 -35 21
-62 l-6 -33 27 17 c25 17 39 17 79 0 16 -7 18 -4 12 26 -5 27 -2 39 14 53 25
23 19 36 -18 36 -21 0 -31 7 -43 32 -14 31 -15 32 -22 11z"/>
<path d="M710 775 l-23 -85 -84 -27 -85 -28 25 -20 c13 -11 45 -35 70 -52 l47
-33 0 -91 0 -91 63 49 c34 27 67 52 73 56 6 3 46 -5 88 -19 43 -15 80 -24 83
-21 3 3 -8 41 -23 84 l-28 79 51 69 51 70 -89 3 -90 3 -51 69 c-28 39 -52 70
-53 70 -1 0 -12 -38 -25 -85z"/>
<path d="M1201 596 c-8 -9 -28 -16 -47 -16 -32 0 -33 -1 -23 -24 8 -17 8 -29
0 -44 -16 -31 -14 -35 17 -29 19 4 34 -1 48 -14 l21 -20 6 30 c4 17 14 32 27
36 25 8 26 22 1 30 -10 3 -22 20 -27 37 -8 28 -11 29 -23 14z"/>
</g>
</svg>
